# xmcd CD database file
#
# Track frame offsets:
#	150
#	23890
#	50563
#	77487
#	121179
#	147399
#	178607
#	214000
#
# Disc length: 3053 seconds
#
# Revision: 0
# Processed by: cddbd v1.5.2PL0 Copyright (c) Steve Scherf et al.
# Submitted via: CDex 1.70beta2
#
DISCID=680beb08
DTITLE=KALEVI LOUHIVUORI QUINTET - ALMOST AMERICAN STANDARDS
DYEAR=2016
DGENRE=Jazz
TTITLE0=FOR MR. EVANS
TTITLE1=CRISE
TTITLE2=PRAISE
TTITLE3=YES AND NOW
TTITLE4=TAKE 4
TTITLE5=6 STEPS TO HEAVEN
TTITLE6=BLUES FOR JOSHUA
TTITLE7=ALONE AGAIN
EXTD=YEAR: 2016
EXTT0=
EXTT1=
EXTT2=
EXTT3=
EXTT4=
EXTT5=
EXTT6=
EXTT7=
PLAYORDER=
